<?xml version="1.0" encoding="UTF-8"?>
<svg id="Layer_1" data-name="Layer 1" xmlns="http://www.w3.org/2000/svg" viewBox="0 0 80.98 22.75">
  <defs>
    <style>
      .cls-1 {
        fill:rgb(240, 176, 1);
      }
    </style>
  </defs>
  <g id="mcvzc-Web_Services" data-name="mcvzc-Web Services">
    <g id="Web_Services" data-name="Web Services">
      <path class="cls-1" d="m4.66,22.75L.98,13.78H.2v-.42h9.64v.42h-.41c-.14,0-.25.03-.33.09s-.16.18-.24.36l-.9,2,1.52,3.54,1.85-5.09c.04-.11.07-.21.1-.31s.03-.18.03-.24c0-.13-.03-.22-.1-.27s-.19-.08-.37-.08h-.56v-.42h2.68v.42h-.43c-.21,0-.37.06-.5.18s-.26.37-.4.76l-2.91,8.02h-.38l-1.65-3.95-1.79,3.95h-.38Zm1.15-2.78l.78-1.74-1.89-4.47h-1.44l2.55,6.21Zm1.91-4.24l.86-1.96h-1.69l.83,1.96Z"/>
      <path class="cls-1" d="m17.49,20.67l.32.11c-.23.65-.58,1.13-1.03,1.44s-1.03.47-1.75.47c-.98,0-1.76-.26-2.34-.78s-.87-1.21-.87-2.07.3-1.56.91-2.13,1.37-.85,2.28-.85c.85,0,1.51.23,2,.7s.73,1.1.73,1.91v.07h-3.7v1.38c0,.54.08.91.25,1.11s.46.3.88.3c.56,0,1.04-.14,1.43-.42s.68-.69.89-1.24Zm-3.44-1.56h1.87v-1.07c0-.3-.07-.51-.22-.65s-.39-.2-.71-.2-.55.07-.7.21-.23.35-.23.64v1.07Z"/>
      <path class="cls-1" d="m18.48,22.53v-.42h.76v-8.33h-.76v-.42c.44-.01.88-.03,1.32-.06s.9-.06,1.36-.1v4.72c.21-.35.47-.62.77-.79s.65-.26,1.04-.26c.75,0,1.37.28,1.86.83s.74,1.25.74,2.1-.25,1.51-.75,2.07-1.11.84-1.85.84c-.39,0-.74-.09-1.04-.26s-.55-.44-.76-.79v.87h-2.68Zm2.68-2.22c0,.59.14,1.07.41,1.43s.63.54,1.07.54c.29,0,.49-.06.61-.19s.17-.35.17-.69v-3.23c0-.34-.05-.57-.16-.71s-.28-.21-.53-.21c-.48,0-.86.18-1.15.54s-.43.84-.43,1.45v1.05Z"/>
      <path class="cls-1" d="m31.02,22.64v-2.69h.54c.23.78.58,1.37,1.04,1.77s1.03.6,1.7.6c.6,0,1.1-.16,1.49-.48s.59-.73.59-1.23c0-.27-.05-.49-.14-.66s-.25-.33-.48-.48c-.26-.17-.76-.34-1.52-.52-.28-.06-.49-.11-.64-.15-.89-.23-1.53-.56-1.93-.99s-.6-1.02-.6-1.76c0-.86.27-1.55.8-2.08s1.23-.8,2.1-.8c.35,0,.68.05.99.15s.59.25.86.44l.5-.41h.44l.06,2.42h-.46c-.18-.71-.48-1.25-.9-1.63s-.94-.56-1.56-.56c-.52,0-.94.13-1.28.38s-.5.57-.5.96c0,.58.61,1,1.84,1.27.17.04.29.06.38.08,1.14.27,1.95.64,2.41,1.13s.69,1.18.69,2.08-.3,1.7-.89,2.31-1.33.92-2.23.92c-.45,0-.85-.05-1.2-.16s-.67-.27-.96-.49l-.63.54h-.51Z"/>
      <path class="cls-1" d="m44.23,20.67l.32.11c-.23.65-.58,1.13-1.03,1.44s-1.03.47-1.75.47c-.98,0-1.76-.26-2.34-.78s-.87-1.21-.87-2.07.3-1.56.91-2.13,1.37-.85,2.28-.85c.85,0,1.51.23,2,.7s.73,1.1.73,1.91v.07h-3.7v1.38c0,.54.08.91.25,1.11s.46.3.88.3c.56,0,1.04-.14,1.43-.42s.68-.69.89-1.24Zm-3.44-1.56h1.87v-1.07c0-.3-.07-.51-.22-.65s-.39-.2-.71-.2-.55.07-.7.21-.23.35-.23.64v1.07Z"/>
      <path class="cls-1" d="m45.36,22.53v-.42h.75v-4.66h-.76v-.42c.45-.02.89-.04,1.33-.07s.89-.06,1.33-.1v1.51c.19-.47.44-.84.74-1.11s.63-.4.98-.4.64.11.87.34.35.5.35.83c0,.29-.09.54-.28.73s-.43.29-.72.29c-.25,0-.47-.09-.64-.28s-.26-.41-.26-.67c0-.1.03-.2.08-.31s.08-.18.08-.21c0-.02-.01-.04-.03-.06s-.05-.02-.08-.02c-.2,0-.43.23-.68.68s-.38.93-.38,1.43v2.5h1.02v.42h-3.71Z"/>
      <path class="cls-1" d="m54.38,22.73l-2.56-5.28h-.59v-.43h3.39v.43h-.71l1.37,3.09,1.12-2.56c.03-.06.05-.12.07-.17s.02-.09.02-.14c0-.07-.03-.12-.1-.16s-.16-.06-.28-.06h-.61v-.43h2.27v.43h-.38c-.12,0-.21.03-.29.09s-.14.16-.21.31l-2.13,4.88h-.38Z"/>
      <path class="cls-1" d="m58.3,22.53v-.42h.83v-4.66h-.92v-.43c.52-.01,1.01-.03,1.48-.06s.94-.06,1.38-.1v5.25h.87v.42h-3.65Zm.79-7.89c0-.27.1-.5.29-.7s.43-.29.7-.29.49.1.68.29.28.42.28.7-.09.5-.28.7-.42.29-.69.29-.5-.1-.69-.29-.29-.43-.29-.7Z"/>
      <path class="cls-1" d="m67.93,20.67l.32.11c-.22.63-.54,1.1-.96,1.42s-.94.47-1.55.47c-.89,0-1.63-.28-2.23-.84s-.9-1.25-.9-2.07.31-1.49.94-2.05,1.4-.84,2.3-.84c.63,0,1.15.14,1.55.43s.6.66.6,1.12c0,.26-.08.48-.25.65s-.39.25-.65.25c-.29,0-.53-.08-.7-.25s-.26-.4-.26-.69c0-.21.07-.4.22-.58s.22-.27.22-.29c0-.11-.06-.19-.18-.24s-.3-.08-.55-.08c-.41,0-.7.1-.85.29s-.23.67-.23,1.43v1.69c0,.7.08,1.16.24,1.37s.45.31.87.31c.49,0,.9-.14,1.24-.41s.61-.67.79-1.2Z"/>
      <path class="cls-1" d="m75.15,20.67l.32.11c-.23.65-.58,1.13-1.03,1.44s-1.03.47-1.75.47c-.98,0-1.76-.26-2.34-.78s-.87-1.21-.87-2.07.3-1.56.91-2.13,1.37-.85,2.28-.85c.85,0,1.51.23,2,.7s.73,1.1.73,1.91v.07h-3.7v1.38c0,.54.08.91.25,1.11s.46.3.88.3c.56,0,1.04-.14,1.43-.42s.68-.69.89-1.24Zm-3.44-1.56h1.87v-1.07c0-.3-.07-.51-.22-.65s-.39-.2-.71-.2-.55.07-.7.21-.23.35-.23.64v1.07Z"/>
      <path class="cls-1" d="m76.5,22.53v-2.05h.35c.16.61.41,1.06.75,1.37s.76.46,1.26.46c.39,0,.72-.1.97-.29s.38-.43.38-.71c0-.36-.41-.59-1.23-.69-.23-.03-.42-.05-.54-.08-.73-.11-1.23-.29-1.53-.55s-.44-.65-.44-1.17c0-.6.18-1.08.54-1.44s.84-.53,1.45-.53c.23,0,.46.03.69.08s.45.14.65.24l.3-.25h.28l.04,1.56h-.35c-.15-.43-.35-.75-.62-.97s-.59-.33-.97-.33-.68.07-.92.22-.37.33-.37.54c0,.3.48.51,1.43.63.15.02.27.03.36.05.74.09,1.26.28,1.55.58s.44.74.44,1.35c0,.66-.19,1.18-.57,1.56s-.9.56-1.57.56c-.32,0-.62-.04-.89-.12s-.5-.2-.71-.35l-.4.31h-.34Z"/>
    </g>
    <g id="mczvc">
      <path class="cls-1" d="m.24,11.23h1.64V1.24H0V.32c.92,0,1.87-.02,2.85-.07s2-.11,3.06-.2v3.02c.56-1.05,1.22-1.82,1.98-2.3S9.56.06,10.63.06s1.94.25,2.52.74.88,1.22.91,2.18c.56-1.01,1.22-1.75,1.98-2.22S17.73.06,18.81.06c.68,0,1.26.09,1.75.27s.89.46,1.2.85c.19.22.32.48.4.8s.12.76.12,1.34v7.92h1.84v.9h-7.49v-.9h1.58V2.92c0-.55-.1-.95-.29-1.19s-.51-.37-.94-.37c-.75,0-1.42.43-2.03,1.28s-.91,1.85-.91,2.98v5.62h1.47v.9h-7v-.9h1.55V2.92c0-.55-.1-.95-.29-1.19s-.51-.37-.94-.37c-.73,0-1.39.43-1.98,1.29s-.89,1.85-.89,2.97v5.62h1.49v.9H.24v-.9Z"/>
      <path class="cls-1" d="m25.18,12.13v-.63L31.83,1.27h-2.05c-.7,0-1.28.25-1.73.76s-.96,1.49-1.5,2.96h-.83l.15-4.63h10.57v.72l-6.6,10.16h2.05c.85,0,1.54-.29,2.09-.87s1.13-1.67,1.74-3.27h.81l-.21,5.04h-11.15Z"/>
      <path class="cls-1" d="m50.3,8.15l.69.24c-.46,1.35-1.15,2.36-2.05,3.03s-2.01,1.01-3.32,1.01c-1.9,0-3.48-.6-4.76-1.8s-1.92-2.68-1.92-4.44.67-3.18,2.01-4.39,2.99-1.81,4.93-1.81c1.36,0,2.46.31,3.31.93s1.28,1.42,1.28,2.39c0,.56-.18,1.02-.55,1.39s-.83.55-1.39.55c-.63,0-1.13-.18-1.5-.55s-.55-.86-.55-1.47c0-.45.16-.86.47-1.23s.47-.57.47-.61c0-.24-.13-.41-.38-.52s-.64-.17-1.17-.17c-.88,0-1.49.21-1.83.62s-.5,1.43-.5,3.07v3.61c0,1.5.17,2.48.52,2.93s.97.67,1.87.67c1.04,0,1.93-.29,2.66-.87s1.29-1.43,1.69-2.57Z"/>
      <path class="cls-1" d="m59.37,12.56l-5.47-11.29h-1.27V.35h7.25v.91h-1.52l2.93,6.6,2.39-5.47c.07-.14.12-.26.14-.35s.04-.2.04-.31c0-.15-.07-.26-.21-.35s-.34-.13-.6-.13h-1.3V.35h4.85v.91h-.81c-.26,0-.46.06-.61.18s-.3.34-.45.66l-4.56,10.45h-.81Z"/>
      <path class="cls-1" d="m80.08,8.15l.69.24c-.46,1.35-1.15,2.36-2.05,3.03s-2.01,1.01-3.32,1.01c-1.9,0-3.48-.6-4.76-1.8s-1.92-2.68-1.92-4.44.67-3.18,2.01-4.39,2.99-1.81,4.93-1.81c1.36,0,2.46.31,3.31.93s1.28,1.42,1.28,2.39c0,.56-.18,1.02-.55,1.39s-.83.55-1.39.55c-.63,0-1.13-.18-1.5-.55s-.55-.86-.55-1.47c0-.45.16-.86.47-1.23s.47-.57.47-.61c0-.24-.13-.41-.38-.52s-.64-.17-1.17-.17c-.88,0-1.49.21-1.83.62s-.5,1.43-.5,3.07v3.61c0,1.5.17,2.48.52,2.93s.97.67,1.87.67c1.04,0,1.93-.29,2.66-.87s1.29-1.43,1.69-2.57Z"/>
    </g>
  </g>
</svg>